# xmcd CD database file
#
# Track frame offsets:
#	183
#	12130
#	22908
#	33860
#	46983
#	59545
#	72850
#	83735
#	101250
#	113818
#	128830
#	141318
#	153460
#	167690
#	179070
#	190225
#	203800
#	214270
#	225775
#	237610
#
# Disc length: 3318 seconds
#
# Revision: 0
# Processed by: cddbd v1.4PL0 Copyright (c) Steve Scherf et al.
# Submitted via: CDex 1.40Release
#
DISCID=0c0cf414
DTITLE=Eddy Arnold - 40 Famous Records
DYEAR=1900
DGENRE=Country
TTITLE0=Just A Little Lovin
TTITLE1=Boquet Of Roses
TTITLE2=You Don't Know Me
TTITLE3=I Can't Help It
TTITLE4=Such A Pretty World
TTITLE5=Release Me
TTITLE6=Can't Stop Loving You
TTITLE7=Honey
TTITLE8=Come Live With Me
TTITLE9=Gone
TTITLE10=Cold Cold Heart
TTITLE11=Don't Hurt Anymore
TTITLE12=That's How Much I Love You
TTITLE13=Welcome To My World
TTITLE14=Somebody Like Me
TTITLE15=Tip Of My Fingers
TTITLE16=Here Comes My Heaven
TTITLE17=Careless Love
TTITLE18=Love You So Much It Hurts
TTITLE19=Have I Told You Lately
EXTD=ID3G: 2
EXTT0=
EXTT1=
EXTT2=
EXTT3=
EXTT4=
EXTT5=
EXTT6=
EXTT7=
EXTT8=
EXTT9=
EXTT10=
EXTT11=
EXTT12=
EXTT13=
EXTT14=
EXTT15=
EXTT16=
EXTT17=
EXTT18=
EXTT19=
PLAYORDER=
